<?xml version="1.0" encoding="UTF-8"?>
<svg width="1000" height="1000" xmlns="http://www.w3.org/2000/svg">
    <defs>
        <linearGradient id="gradient" x1="0.5" x2="0.5" y1="0" y2="1">
            <stop offset="0%" stop-color="#FFCE40" />
            <stop offset="100%" stop-color="#FF6E40" />
        </linearGradient>
    </defs>
    <rect width="1000" height="1000" fill="white" />
    <path
        d="M 100,500 Q 0,500 0,400 V 50 A 50,50 180 0,1 100,50 V 200 A 50,50 150 0,0 200,200 V 50 A 50,50 180 0,1 300,50 V 200 A 50,50 180 0,0 400,200 V 50 A 50,50 180 0,1 500,50 V 400 Q 500,500 400,500 Z"
        fill="url(#gradient)" transform="translate(250,250)" />
</svg>