<svg version="1.0" xmlns="http://www.w3.org/2000/svg" width="933.333" height="933.333" viewBox="0 0 700 700"><path d="M60.9.4c-.2.2-2.3.7-4.7 1.1-10.8 1.6-24.7 8.7-33.7 17.2-8 7.5-14.4 17.1-18.5 27.8-1.2 3.1-1.4 4-3 11.5C.4 60.7.1 165.2.2 319.5.2 593 .1 586.6 5 607.5c9.6 41.3 33.7 69.4 70.8 82.5 8.3 3 18.8 5.8 24.2 6.6 1.4.2 7 1 12.5 1.8 14.5 2.1 458.4 2.2 474.5.1 30.7-4 49.5-11 68.5-25.4 19.3-14.7 32.9-37.3 39.4-65.1 1.9-8.4 2.5-11.9 3.9-23.5.4-3.3.7-123.2.7-266.5 0-251.7-.1-260.7-1.9-266.5-6.2-20.1-18.6-35.1-36.3-43.9-10.2-5.1-18-6.9-30.3-7-12.3-.1-16.2.5-25.2 3.8-21.4 7.9-38 26.4-43.8 49-1.7 6.6-1.8 14.4-1.9 119.1-.1 61.6-.4 114-.7 116.5-2.6 22.7-18 43.9-39.3 54-11.1 5.3-16.7 6.5-30.1 6.5-9.1-.1-14.1-.5-18.4-1.9-21.1-6.3-37.2-20.6-45.9-40.3-5.8-13-5.6-10.2-5.7-131.3-.1-61.3-.3-113.3-.6-115.5C417.6 47 410.3 32 400.8 22 388.3 8.7 373.2 1.8 354.2.4c-29.8-2-57.3 15.3-69.1 43.5-5.1 12.1-5 10.7-5.1 129.6 0 61-.3 112.6-.5 114.5-3.2 24.3-19 46.3-40 55.4-2.2.9-4.7 2.1-5.7 2.6-.9.5-5.6 1.7-10.5 2.6-23 4.3-47.1-3.1-62.3-19.1-2.5-2.6-5.2-5.5-6.1-6.4-4.6-4.8-10.5-17.2-12.9-27.4-1.9-7.9-2-12.5-2-119.8 0-111.7-.2-117.5-3.5-127.6-1.6-4.6-5.6-13.5-6.5-14.3-.3-.3-1.8-2.5-3.3-4.8-7.4-11.4-22-21.8-36.9-26.3C83.2 1 62.2-.9 60.9.4z"/></svg>